<?xml version="1.0" encoding="UTF-8" standalone="no"?>
<svg
   xmlns:dc="http://purl.org/dc/elements/1.1/"
   xmlns:cc="http://creativecommons.org/ns#"
   xmlns:rdf="http://www.w3.org/1999/02/22-rdf-syntax-ns#"
   xmlns:svg="http://www.w3.org/2000/svg"
   xmlns="http://www.w3.org/2000/svg"
   xmlns:sodipodi="http://sodipodi.sourceforge.net/DTD/sodipodi-0.dtd"
   xmlns:inkscape="http://www.inkscape.org/namespaces/inkscape"
   enable-background="new 0 0 24 24"
   height="340"
   viewBox="0 0 360 340"
   width="360"
   version="1.1"
   id="svg26"
   sodipodi:docname="app_footer_logo.svg"
   style="fill:#000000"
   inkscape:version="0.92.5 (2060ec1f9f, 2020-04-08)"
   inkscape:export-filename="/home/katemiz/code/breeze/public/images/app_footer_logo.png"
   inkscape:export-xdpi="96"
   inkscape:export-ydpi="96">
  <metadata
     id="metadata32">
    <rdf:RDF>
      <cc:Work
         rdf:about="">
        <dc:format>image/svg+xml</dc:format>
        <dc:type
           rdf:resource="http://purl.org/dc/dcmitype/StillImage" />
        <dc:title />
      </cc:Work>
    </rdf:RDF>
  </metadata>
  <defs
     id="defs30" />
  <sodipodi:namedview
     pagecolor="#ffffff"
     bordercolor="#666666"
     borderopacity="1"
     objecttolerance="10"
     gridtolerance="10"
     guidetolerance="10"
     inkscape:pageopacity="0"
     inkscape:pageshadow="2"
     inkscape:window-width="1920"
     inkscape:window-height="1022"
     id="namedview28"
     showgrid="false"
     inkscape:zoom="2.4529412"
     inkscape:cx="179.59232"
     inkscape:cy="170"
     inkscape:window-x="0"
     inkscape:window-y="0"
     inkscape:window-maximized="1"
     inkscape:current-layer="svg26" />
  <g
     aria-label="TENSOR"
     style="font-style:normal;font-weight:normal;font-size:60px;line-height:1.25;font-family:sans-serif;letter-spacing:0px;word-spacing:0px;fill:#485fc7;fill-opacity:1;stroke:none;stroke-width:1.5"
     id="text938"
     transform="translate(-238.72266,185.26929)">
    <path
       d="M 259.28516,133.73071 V 44.855713 h -13.0625 v -21.125 h 48.125 v 21.125 h -13.0625 v 88.874997 z"
       style="font-style:normal;font-variant:normal;font-weight:normal;font-stretch:normal;font-size:128px;font-family:Anton;-inkscape-font-specification:Anton;fill:#485fc7;stroke-width:1.5;fill-opacity:1"
       id="path2950"
       inkscape:connector-curvature="0" />
    <path
       d="M 300.47266,133.73071 V 23.730713 h 44 v 21.25 h -21.625 v 21.4375 h 20.75 v 20.6875 h -20.75 v 25.187497 h 23.0625 v 21.4375 z"
       style="font-style:normal;font-variant:normal;font-weight:normal;font-stretch:normal;font-size:128px;font-family:Anton;-inkscape-font-specification:Anton;fill:#485fc7;stroke-width:1.5;fill-opacity:1"
       id="path2952"
       inkscape:connector-curvature="0" />
    <path
       d="M 353.16016,133.73071 V 23.730713 h 22.625 l 10.125,52.6875 v -52.6875 h 21.25 V 133.73071 h -21.5 l -11,-54.999997 v 54.999997 z"
       style="font-style:normal;font-variant:normal;font-weight:normal;font-stretch:normal;font-size:128px;font-family:Anton;-inkscape-font-specification:Anton;fill:#485fc7;stroke-width:1.5;fill-opacity:1"
       id="path2954"
       inkscape:connector-curvature="0" />
    <path
       d="m 443.03516,134.73071 q -15.0625,0 -21.75,-7.5 -6.625,-7.5 -6.625,-23.875 V 92.605713 h 21.75 v 13.749997 q 0,3.8125 1.125,6 1.1875,2.125 4.0625,2.125 3,0 4.125,-1.75 1.1875,-1.75 1.1875,-5.75 0,-5.0625 -1,-8.437497 -1,-3.4375 -3.5,-6.5 -2.4375,-3.125 -6.8125,-7.25 l -9.875,-9.375 q -11.0625,-10.4375 -11.0625,-23.875 0,-14.0625 6.5,-21.4375 6.5625,-7.375 18.9375,-7.375 15.125,0 21.4375,8.0625 6.375,8.0625 6.375,24.5 h -22.375 v -7.5625 q 0,-2.25 -1.3125,-3.5 -1.25,-1.25 -3.4375,-1.25 -2.625,0 -3.875,1.5 -1.1875,1.4375 -1.1875,3.75 0,2.3125 1.25,5 1.25,2.6875 4.9375,6.1875 l 12.6875,12.1875 q 3.8125,3.625 7,7.6875 3.1875,4 5.125,9.375 1.9375,5.3125 1.9375,12.999997 0,15.5 -5.75,24.3125 -5.6875,8.75 -19.875,8.75 z"
       style="font-style:normal;font-variant:normal;font-weight:normal;font-stretch:normal;font-size:128px;font-family:Anton;-inkscape-font-specification:Anton;fill:#485fc7;stroke-width:1.5;fill-opacity:1"
       id="path2956"
       inkscape:connector-curvature="0" />
    <path
       d="m 502.22266,134.73071 q -13.1875,0 -20.1875,-7.9375 -6.9375,-8 -6.9375,-23.0625 V 51.480713 q 0,-14.125 6.875,-21.4375 6.9375,-7.3125 20.25,-7.3125 13.3125,0 20.1875,7.3125 6.9375,7.3125 6.9375,21.4375 v 52.249997 q 0,15.0625 -7,23.0625 -6.9375,7.9375 -20.125,7.9375 z m 0.1875,-20.25 q 5,0 5,-9.6875 V 51.105713 q 0,-8.125 -4.875,-8.125 -5.5,0 -5.5,8.3125 v 53.624997 q 0,5.125 1.25,7.375 1.25,2.1875 4.125,2.1875 z"
       style="font-style:normal;font-variant:normal;font-weight:normal;font-stretch:normal;font-size:128px;font-family:Anton;-inkscape-font-specification:Anton;fill:#485fc7;stroke-width:1.5;fill-opacity:1"
       id="path2958"
       inkscape:connector-curvature="0" />
    <path
       d="M 538.22266,133.73071 V 23.730713 h 33.75 q 8.4375,0 12.75,3.875 4.3125,3.8125 5.75,10.75 1.5,6.875 1.5,16.1875 0,9 -2.3125,14.375 -2.25,5.375 -8.5625,7.4375 5.1875,1.0625 7.25,5.1875 2.125,4.0625 2.125,10.5625 v 41.624997 h -21.6875 V 90.668213 q 0,-4.8125 -2,-5.9375 -1.9375,-1.1875 -6.3125,-1.1875 v 50.187497 z m 22.375,-69.249997 h 5.3125 q 4.5625,0 4.5625,-9.9375 0,-6.4375 -1,-8.4375 -1,-2 -3.75,-2 h -5.125 z"
       style="font-style:normal;font-variant:normal;font-weight:normal;font-stretch:normal;font-size:128px;font-family:Anton;-inkscape-font-specification:Anton;fill:#485fc7;stroke-width:1.5;fill-opacity:1"
       id="path2960"
       inkscape:connector-curvature="0" />
  </g>
  <g
     id="g2971"
     transform="translate(101.14421,17.884666)">
    <path
       inkscape:connector-curvature="0"
       style="opacity:1;fill:#e6e6e6;fill-opacity:0.98571424;stroke:#000000;stroke-width:7.64670849;stroke-linecap:round;stroke-linejoin:miter;stroke-miterlimit:4;stroke-dasharray:none;stroke-opacity:1"
       d="M 116.49957,7.4765756 A 47.844642,46.646908 0 0 0 99.35937,34.346191 87.706074,70.253521 0 0 0 78.889182,32.323485 87.706074,70.253521 0 0 0 59.648521,34.124609 47.844634,46.64689 0 0 0 41.559572,8.1783947 66.384328,132.94354 0 0 0 12.846552,117.46307 a 66.384328,132.94354 0 0 0 0.126659,5.08538 91.541246,91.541246 0 0 0 67.385475,29.71928 91.541246,91.541246 0 0 0 65.124334,-27.31776 66.384328,132.94354 0 0 0 0.13203,-7.4869 A 66.384328,132.94354 0 0 0 116.4995,7.4765756 Z"
       id="path925-67" />
    <path
       style="opacity:1;fill:none;stroke:#000000;stroke-width:7.19983435;stroke-linecap:round;stroke-linejoin:miter;stroke-miterlimit:4;stroke-dasharray:none;stroke-opacity:1"
       d="m 33.560112,107.30925 29.739642,3.90573"
       id="path973-5"
       inkscape:connector-curvature="0" />
    <path
       inkscape:connector-curvature="0"
       id="path975-3"
       d="m 37.206104,125.03016 25.711834,-1.94984"
       style="opacity:1;fill:none;stroke:#000000;stroke-width:6.48501635;stroke-linecap:round;stroke-linejoin:miter;stroke-miterlimit:4;stroke-dasharray:none;stroke-opacity:1" />
    <path
       inkscape:connector-curvature="0"
       id="path979-5"
       d="m 127.37596,107.30925 -29.73962,3.90573"
       style="opacity:1;fill:none;stroke:#000000;stroke-width:7.19983435;stroke-linecap:round;stroke-linejoin:miter;stroke-miterlimit:4;stroke-dasharray:none;stroke-opacity:1" />
    <path
       style="opacity:1;fill:none;stroke:#000000;stroke-width:6.48501635;stroke-linecap:round;stroke-linejoin:miter;stroke-miterlimit:4;stroke-dasharray:none;stroke-opacity:1"
       d="M 123.72997,125.03016 98.01815,123.08032"
       id="path981-6"
       inkscape:connector-curvature="0" />
    <path
       inkscape:connector-curvature="0"
       id="path1491"
       d="m 86.262631,71.695256 a 18.340542,25.915901 0 0 0 17.585319,18.62774 18.340542,25.915901 0 0 0 17.0776,-16.50957 23.858941,25.915901 0 0 1 -16.41987,7.123124 23.858941,25.915901 0 0 1 -18.243049,-9.241294 z"
       style="fill:#000000;fill-opacity:0.98571424;stroke:none;stroke-width:12.3479681;stroke-linecap:round;stroke-linejoin:miter;stroke-miterlimit:4;stroke-dasharray:none;stroke-opacity:1" />
    <path
       style="fill:#000000;fill-opacity:0.98571424;stroke:none;stroke-width:12.3479681;stroke-linecap:round;stroke-linejoin:miter;stroke-miterlimit:4;stroke-dasharray:none;stroke-opacity:1"
       d="M 37.801256,71.469846 A 18.340542,25.915901 0 0 0 55.386575,90.097532 18.340542,25.915901 0 0 0 72.464166,73.587987 23.858941,25.915901 0 0 1 56.044282,80.711126 23.858941,25.915901 0 0 1 37.801256,71.469846 Z"
       id="path1496"
       inkscape:connector-curvature="0" />
    <path
       sodipodi:nodetypes="ccccc"
       inkscape:connector-curvature="0"
       id="path1498"
       d="m 70.973487,115.57929 c 1.123616,7.2747 5.773309,7.68898 9.253517,7.62613 3.231347,-0.0693 7.923664,-0.66392 8.965866,-7.26372 -1.835204,3.05931 -6.003278,-12.08024 -8.616869,-12.02655 -3.01019,0.0551 -7.588908,15.49444 -9.602514,11.66414 z"
       style="fill:#000000;fill-opacity:0.98571424;stroke:none;stroke-width:6.56690931;stroke-linecap:round;stroke-linejoin:miter;stroke-miterlimit:4;stroke-dasharray:none;stroke-opacity:1" />
  </g>
</svg>
