<?xml version="1.0" encoding="UTF-8" standalone="no"?>
<svg
   xmlns:dc="http://purl.org/dc/elements/1.1/"
   xmlns:cc="http://creativecommons.org/ns#"
   xmlns:rdf="http://www.w3.org/1999/02/22-rdf-syntax-ns#"
   xmlns:svg="http://www.w3.org/2000/svg"
   xmlns="http://www.w3.org/2000/svg"
   xmlns:sodipodi="http://sodipodi.sourceforge.net/DTD/sodipodi-0.dtd"
   xmlns:inkscape="http://www.inkscape.org/namespaces/inkscape"
   enable-background="new 0 0 24 24"
   height="64"
   viewBox="0 0 64 64"
   width="64"
   version="1.1"
   id="svg26"
   sodipodi:docname="tensor_favicon.svg"
   style="fill:#000000"
   inkscape:version="0.92.5 (2060ec1f9f, 2020-04-08)"
   inkscape:export-filename="/home/katemiz/code/breeze/public/images/app_footer_logo.png"
   inkscape:export-xdpi="96"
   inkscape:export-ydpi="96">
  <metadata
     id="metadata32">
    <rdf:RDF>
      <cc:Work
         rdf:about="">
        <dc:format>image/svg+xml</dc:format>
        <dc:type
           rdf:resource="http://purl.org/dc/dcmitype/StillImage" />
        <dc:title></dc:title>
      </cc:Work>
    </rdf:RDF>
  </metadata>
  <defs
     id="defs30" />
  <sodipodi:namedview
     pagecolor="#ffffff"
     bordercolor="#666666"
     borderopacity="1"
     objecttolerance="10"
     gridtolerance="10"
     guidetolerance="10"
     inkscape:pageopacity="0"
     inkscape:pageshadow="2"
     inkscape:window-width="1920"
     inkscape:window-height="1022"
     id="namedview28"
     showgrid="false"
     inkscape:zoom="13.03125"
     inkscape:cx="32"
     inkscape:cy="32"
     inkscape:window-x="0"
     inkscape:window-y="0"
     inkscape:window-maximized="1"
     inkscape:current-layer="svg26" />
  <g
     id="g2971"
     transform="matrix(0.35608649,0,0,0.35608649,3.7869682,4.48588)">
    <path
       inkscape:connector-curvature="0"
       style="opacity:1;fill:#e6e6e6;fill-opacity:0.98571424;stroke:#000000;stroke-width:7.64670849;stroke-linecap:round;stroke-linejoin:miter;stroke-miterlimit:4;stroke-dasharray:none;stroke-opacity:1"
       d="M 116.49957,7.4765756 A 47.844642,46.646908 0 0 0 99.35937,34.346191 87.706074,70.253521 0 0 0 78.889182,32.323485 87.706074,70.253521 0 0 0 59.648521,34.124609 47.844634,46.64689 0 0 0 41.559572,8.1783947 66.384328,132.94354 0 0 0 12.846552,117.46307 a 66.384328,132.94354 0 0 0 0.126659,5.08538 91.541246,91.541246 0 0 0 67.385475,29.71928 91.541246,91.541246 0 0 0 65.124334,-27.31776 66.384328,132.94354 0 0 0 0.13203,-7.4869 A 66.384328,132.94354 0 0 0 116.4995,7.4765756 Z"
       id="path925-67" />
    <path
       style="opacity:1;fill:none;stroke:#000000;stroke-width:7.19983435;stroke-linecap:round;stroke-linejoin:miter;stroke-miterlimit:4;stroke-dasharray:none;stroke-opacity:1"
       d="m 33.560112,107.30925 29.739642,3.90573"
       id="path973-5"
       inkscape:connector-curvature="0" />
    <path
       inkscape:connector-curvature="0"
       id="path975-3"
       d="m 37.206104,125.03016 25.711834,-1.94984"
       style="opacity:1;fill:none;stroke:#000000;stroke-width:6.48501635;stroke-linecap:round;stroke-linejoin:miter;stroke-miterlimit:4;stroke-dasharray:none;stroke-opacity:1" />
    <path
       inkscape:connector-curvature="0"
       id="path979-5"
       d="m 127.37596,107.30925 -29.73962,3.90573"
       style="opacity:1;fill:none;stroke:#000000;stroke-width:7.19983435;stroke-linecap:round;stroke-linejoin:miter;stroke-miterlimit:4;stroke-dasharray:none;stroke-opacity:1" />
    <path
       style="opacity:1;fill:none;stroke:#000000;stroke-width:6.48501635;stroke-linecap:round;stroke-linejoin:miter;stroke-miterlimit:4;stroke-dasharray:none;stroke-opacity:1"
       d="M 123.72997,125.03016 98.01815,123.08032"
       id="path981-6"
       inkscape:connector-curvature="0" />
    <path
       inkscape:connector-curvature="0"
       id="path1491"
       d="m 86.262631,71.695256 a 18.340542,25.915901 0 0 0 17.585319,18.62774 18.340542,25.915901 0 0 0 17.0776,-16.50957 23.858941,25.915901 0 0 1 -16.41987,7.123124 23.858941,25.915901 0 0 1 -18.243049,-9.241294 z"
       style="fill:#000000;fill-opacity:0.98571424;stroke:none;stroke-width:12.3479681;stroke-linecap:round;stroke-linejoin:miter;stroke-miterlimit:4;stroke-dasharray:none;stroke-opacity:1" />
    <path
       style="fill:#000000;fill-opacity:0.98571424;stroke:none;stroke-width:12.3479681;stroke-linecap:round;stroke-linejoin:miter;stroke-miterlimit:4;stroke-dasharray:none;stroke-opacity:1"
       d="M 37.801256,71.469846 A 18.340542,25.915901 0 0 0 55.386575,90.097532 18.340542,25.915901 0 0 0 72.464166,73.587987 23.858941,25.915901 0 0 1 56.044282,80.711126 23.858941,25.915901 0 0 1 37.801256,71.469846 Z"
       id="path1496"
       inkscape:connector-curvature="0" />
    <path
       sodipodi:nodetypes="ccccc"
       inkscape:connector-curvature="0"
       id="path1498"
       d="m 70.973487,115.57929 c 1.123616,7.2747 5.773309,7.68898 9.253517,7.62613 3.231347,-0.0693 7.923664,-0.66392 8.965866,-7.26372 -1.835204,3.05931 -6.003278,-12.08024 -8.616869,-12.02655 -3.01019,0.0551 -7.588908,15.49444 -9.602514,11.66414 z"
       style="fill:#000000;fill-opacity:0.98571424;stroke:none;stroke-width:6.56690931;stroke-linecap:round;stroke-linejoin:miter;stroke-miterlimit:4;stroke-dasharray:none;stroke-opacity:1" />
  </g>
</svg>
